<mxfile host="65bd71144e">
    <diagram id="-u13z8sunvJpdgHFMMRn" name="Page-1">
        <mxGraphModel dx="770" dy="413" grid="1" gridSize="10" guides="1" tooltips="1" connect="1" arrows="1" fold="1" page="1" pageScale="1" pageWidth="827" pageHeight="1169" math="0" shadow="0">
            <root>
                <mxCell id="0"/>
                <mxCell id="1" parent="0"/>
                <mxCell id="4" value="" style="edgeStyle=none;html=1;" edge="1" parent="1" source="2" target="3">
                    <mxGeometry relative="1" as="geometry"/>
                </mxCell>
                <mxCell id="2" value="inicio" style="ellipse;whiteSpace=wrap;html=1;fillColor=#FF0080;" vertex="1" parent="1">
                    <mxGeometry x="340" y="20" width="90" height="60" as="geometry"/>
                </mxCell>
                <mxCell id="6" value="" style="edgeStyle=none;html=1;" edge="1" parent="1" source="3" target="5">
                    <mxGeometry relative="1" as="geometry"/>
                </mxCell>
                <mxCell id="3" value="A,B" style="shape=parallelogram;perimeter=parallelogramPerimeter;whiteSpace=wrap;html=1;fixedSize=1;fillColor=#00CC66;" vertex="1" parent="1">
                    <mxGeometry x="325" y="110" width="120" height="60" as="geometry"/>
                </mxCell>
                <mxCell id="9" value="" style="edgeStyle=none;html=1;entryX=1;entryY=0.5;entryDx=0;entryDy=0;" edge="1" parent="1" source="5" target="7">
                    <mxGeometry relative="1" as="geometry">
                        <mxPoint x="545" y="240" as="targetPoint"/>
                        <Array as="points">
                            <mxPoint x="570" y="240"/>
                            <mxPoint x="570" y="360"/>
                        </Array>
                    </mxGeometry>
                </mxCell>
                <mxCell id="11" value="" style="edgeStyle=none;html=1;entryX=0;entryY=0.5;entryDx=0;entryDy=0;" edge="1" parent="1" source="5" target="7">
                    <mxGeometry relative="1" as="geometry">
                        <mxPoint x="225" y="240" as="targetPoint"/>
                        <Array as="points">
                            <mxPoint x="210" y="240"/>
                            <mxPoint x="210" y="365"/>
                        </Array>
                    </mxGeometry>
                </mxCell>
                <mxCell id="5" value="A%B == 0 or&lt;br&gt;B%A ==0" style="rhombus;whiteSpace=wrap;html=1;fillColor=#FF9933;" vertex="1" parent="1">
                    <mxGeometry x="320" y="200" width="120" height="70" as="geometry"/>
                </mxCell>
                <mxCell id="13" value="" style="edgeStyle=none;html=1;" edge="1" parent="1" source="7" target="12">
                    <mxGeometry relative="1" as="geometry"/>
                </mxCell>
                <mxCell id="7" value="PRINT" style="shape=document;whiteSpace=wrap;html=1;boundedLbl=1;fillColor=#B266FF;" vertex="1" parent="1">
                    <mxGeometry x="345" y="340" width="90" height="50" as="geometry"/>
                </mxCell>
                <mxCell id="12" value="fin" style="ellipse;whiteSpace=wrap;html=1;fillColor=#FF0080;" vertex="1" parent="1">
                    <mxGeometry x="345" y="430" width="110" height="60" as="geometry"/>
                </mxCell>
            </root>
        </mxGraphModel>
    </diagram>
</mxfile>